<svg width="25" height="24" viewBox="0 0 25 24" fill="none" xmlns="http://www.w3.org/2000/svg">
<g clip-path="url(#clip0_215_453)">
<path d="M23.3874 1.12549C23.3874 1.12549 15.844 8.80524e-05 13.799 8.80524e-05C13.6311 -0.0208353 13.4607 0.00129528 13.3038 0.0643967L0.782898 12.5853C0.600664 12.7705 0.498535 13.02 0.498535 13.2798C0.498535 13.5397 0.600664 13.7891 0.782898 13.9744L10.5192 23.7107C10.6099 23.8027 10.7181 23.8757 10.8373 23.9254C10.9566 23.9751 11.0846 24.0005 11.2138 24.0001C11.343 24.0008 11.4711 23.9756 11.5904 23.9259C11.7097 23.8762 11.8178 23.803 11.9083 23.7107L24.4292 11.1962C24.8151 10.8104 23.3874 1.12549 23.3874 1.12549ZM11.2138 20.7718L3.72824 13.2798L14.4099 2.59816C15.8633 2.69462 18.725 3.05475 21.1109 3.38272C21.4839 6.05154 21.8118 8.76536 21.9019 10.0837L11.2138 20.7718Z" fill="#002E44"/>
<path d="M18.0563 7.87779C18.9442 7.87779 19.664 7.15799 19.664 6.27007C19.664 5.38215 18.9442 4.66235 18.0563 4.66235C17.1684 4.66235 16.4486 5.38215 16.4486 6.27007C16.4486 7.15799 17.1684 7.87779 18.0563 7.87779Z" fill="#002E44"/>
</g>
<defs>
<clipPath id="clip0_215_453">
<rect width="24" height="24" fill="white" transform="translate(0.5)"/>
</clipPath>
</defs>
</svg>
