<svg width="114" height="32" viewBox="0 0 114 32" fill="none" xmlns="http://www.w3.org/2000/svg">
<path d="M8.01875 11.733H4.59646L4.58214 24.5489H2.57745L2.59177 11.733H0V9.6467H2.59177L2.57745 4.96741H4.58214L4.59646 9.6467H8.01875V11.733Z" fill="#006CE5"/>
<path d="M16.483 24.9364C15.1656 24.9364 13.9628 24.5837 12.8745 23.8783C11.7958 23.1729 10.9319 22.2291 10.2827 21.0469C9.64316 19.8547 9.32336 18.5383 9.32336 17.0978C9.32336 16.005 9.50951 14.9867 9.88181 14.0428C10.2541 13.0891 10.7648 12.2546 11.414 11.5393C12.0726 10.814 12.8363 10.2478 13.705 9.84043C14.5737 9.4331 15.4997 9.22944 16.483 9.22944C17.8003 9.22944 18.9984 9.58212 20.0771 10.2875C21.1653 10.9929 22.0293 11.9416 22.6688 13.1338C23.318 14.326 23.6426 15.6473 23.6426 17.0978C23.6426 18.1807 23.4564 19.194 23.0841 20.1379C22.7118 21.0817 22.1963 21.9162 21.5376 22.6414C20.8885 23.3567 20.1296 23.918 19.2609 24.3254C18.4017 24.7327 17.4758 24.9364 16.483 24.9364ZM16.483 22.8501C17.4567 22.8501 18.3301 22.5868 19.1034 22.0602C19.8862 21.5238 20.5019 20.8184 20.9505 19.9441C21.4088 19.0699 21.6379 18.1211 21.6379 17.0978C21.6379 16.0546 21.4088 15.0959 20.9505 14.2217C20.4923 13.3375 19.8718 12.6321 19.089 12.1056C18.3158 11.579 17.4471 11.3157 16.483 11.3157C15.5093 11.3157 14.631 11.584 13.8482 12.1205C13.075 12.647 12.4593 13.3474 12.001 14.2217C11.5524 15.0959 11.328 16.0546 11.328 17.0978C11.328 18.1708 11.5619 19.1444 12.0297 20.0186C12.4974 20.883 13.1227 21.5734 13.9055 22.09C14.6883 22.5967 15.5474 22.8501 16.483 22.8501Z" fill="#006CE5"/>
<path d="M28.0725 32H26.0679V9.6467H28.0725V12.4334C28.5689 11.4896 29.2467 10.7246 30.1059 10.1385C30.965 9.55232 31.9865 9.25924 33.1702 9.25924C34.2107 9.25924 35.1844 9.4629 36.0913 9.87023C37.0077 10.2776 37.8096 10.8438 38.4969 11.5691C39.1842 12.2844 39.7236 13.1139 40.115 14.0578C40.5064 15.0016 40.7021 16.0149 40.7021 17.0978C40.7021 18.1807 40.5064 19.199 40.115 20.1528C39.7236 21.1065 39.1842 21.946 38.4969 22.6712C37.8096 23.3865 37.0077 23.9478 36.0913 24.3552C35.1844 24.7625 34.2107 24.9662 33.1702 24.9662C31.9865 24.9662 30.965 24.6731 30.1059 24.0869C29.2467 23.5008 28.5689 22.7358 28.0725 21.792V32ZM33.1559 11.2859C32.1535 11.2859 31.2801 11.5492 30.5355 12.0758C29.8004 12.5924 29.2324 13.2878 28.8315 14.1621C28.4305 15.0363 28.2301 16.0149 28.2301 17.0978C28.2301 18.1608 28.4258 19.1344 28.8171 20.0186C29.2181 20.9028 29.7861 21.6082 30.5211 22.1347C31.2657 22.6613 32.144 22.9246 33.1559 22.9246C34.1487 22.9246 35.0603 22.6663 35.8908 22.1496C36.7309 21.633 37.4039 20.9376 37.9098 20.0633C38.4158 19.1791 38.6688 18.1906 38.6688 17.0978C38.6688 16.0348 38.4206 15.0661 37.9242 14.1919C37.4278 13.3077 36.7643 12.6023 35.9338 12.0758C35.1033 11.5492 34.1773 11.2859 33.1559 11.2859Z" fill="#006CE5"/>
<path d="M56.3841 15.1307V24.5489H52.8902V16.0845C52.8902 15.4983 52.7518 14.9668 52.4749 14.4899C52.1981 14.0031 51.8258 13.6206 51.358 13.3424C50.8998 13.0543 50.3891 12.9103 49.8259 12.9103C49.2626 12.9103 48.7472 13.0543 48.2794 13.3424C47.8212 13.6206 47.4536 14.0031 47.1768 14.4899C46.9095 14.9668 46.7759 15.4983 46.7759 16.0845V24.5489H43.282L43.2677 9.6467H46.7616L46.7759 10.973C47.2627 10.4365 47.845 10.0143 48.5228 9.70631C49.2006 9.38839 49.9309 9.22944 50.7136 9.22944C51.7542 9.22944 52.704 9.49768 53.5632 10.0342C54.4223 10.5607 55.1049 11.271 55.6108 12.1652C56.1263 13.0494 56.3841 14.0379 56.3841 15.1307Z" fill="#006CE5"/>
<path d="M65.2577 24.9364C63.9403 24.9364 62.7375 24.5837 61.6493 23.8783C60.5706 23.1729 59.7066 22.2242 59.0575 21.032C58.4179 19.8398 58.0981 18.5234 58.0981 17.0829C58.0981 16 58.2843 14.9867 58.6566 14.0428C59.0289 13.0891 59.5396 12.2546 60.1887 11.5393C60.8474 10.814 61.6111 10.2478 62.4798 9.84043C63.3485 9.4331 64.2744 9.22944 65.2577 9.22944C66.3746 9.22944 67.396 9.47781 68.322 9.97455C69.2575 10.4614 70.0499 11.132 70.699 11.9863C71.3481 12.8407 71.8207 13.8143 72.1166 14.9072C72.4125 16 72.4793 17.1425 72.3171 18.3347H61.8497C61.9834 18.891 62.2029 19.3927 62.5084 19.8398C62.8139 20.2769 63.2005 20.6296 63.6683 20.8979C64.136 21.1562 64.6658 21.2903 65.2577 21.3002C65.8687 21.3102 66.4223 21.1611 66.9187 20.8532C67.4247 20.5352 67.8447 20.108 68.1788 19.5716L71.7443 20.4359C71.162 21.7572 70.2933 22.8401 69.1382 23.6846C67.9831 24.5191 66.6896 24.9364 65.2577 24.9364ZM61.7352 15.6076H68.7802C68.6752 15.0115 68.4509 14.475 68.1072 13.9981C67.7731 13.5113 67.3578 13.1239 66.8615 12.8358C66.3651 12.5477 65.8305 12.4036 65.2577 12.4036C64.6849 12.4036 64.1551 12.5477 63.6683 12.8358C63.1814 13.1139 62.7662 13.4964 62.4225 13.9832C62.0884 14.4601 61.8593 15.0016 61.7352 15.6076Z" fill="#006CE5"/>
<path d="M81.3643 24.5489H77.8991L73.1165 9.6467H76.5388L79.646 19.2884L82.739 9.6467H86.1899L89.2828 19.2884L92.3901 9.6467H95.8124L91.0298 24.5489H87.5645L84.4573 14.8625L81.3643 24.5489Z" fill="#006CE5"/>
<path d="M102.056 24.8171C101.311 24.7675 100.59 24.6135 99.8936 24.3552C99.2063 24.0869 98.5953 23.7243 98.0607 23.2673C97.5261 22.8103 97.1157 22.2639 96.8293 21.6281L99.779 20.3167C99.8936 20.5154 100.08 20.729 100.337 20.9575C100.595 21.176 100.901 21.3598 101.254 21.5089C101.617 21.6579 102.013 21.7324 102.442 21.7324C102.805 21.7324 103.149 21.6827 103.473 21.5834C103.808 21.4741 104.075 21.3102 104.275 21.0916C104.485 20.873 104.59 20.5899 104.59 20.2422C104.59 19.8746 104.466 19.5914 104.218 19.3927C103.979 19.1841 103.674 19.0301 103.302 18.9308C102.939 18.8215 102.586 18.7221 102.242 18.6327C101.335 18.444 100.49 18.1509 99.7074 17.7535C98.9342 17.3561 98.3089 16.8445 97.8316 16.2186C97.3639 15.5827 97.13 14.8178 97.13 13.9236C97.13 12.9401 97.3782 12.0907 97.8746 11.3754C98.3805 10.66 99.0344 10.1087 99.8363 9.72121C100.648 9.33375 101.521 9.14002 102.457 9.14002C103.593 9.14002 104.633 9.38839 105.578 9.88513C106.533 10.3719 107.287 11.0624 107.841 11.9565L105.077 13.6554C104.943 13.417 104.757 13.1984 104.519 12.9997C104.28 12.7911 104.008 12.6222 103.702 12.493C103.397 12.3539 103.077 12.2745 102.743 12.2546C102.314 12.2347 101.922 12.2745 101.569 12.3738C101.216 12.4732 100.929 12.642 100.71 12.8805C100.5 13.1189 100.395 13.4368 100.395 13.8342C100.395 14.2117 100.538 14.4949 100.824 14.6836C101.111 14.8625 101.454 15.0016 101.855 15.1009C102.266 15.2003 102.657 15.3095 103.029 15.4288C103.87 15.7169 104.657 16.0695 105.392 16.4868C106.137 16.9041 106.733 17.4157 107.182 18.0217C107.631 18.6278 107.846 19.353 107.826 20.1975C107.826 21.1611 107.55 22.0056 106.996 22.7308C106.442 23.4461 105.726 23.9926 104.848 24.3701C103.979 24.7476 103.049 24.8966 102.056 24.8171Z" fill="#006CE5"/>
<path d="M111.852 24.9364C111.251 24.9364 110.74 24.7228 110.32 24.2956C109.909 23.8584 109.704 23.3269 109.704 22.701C109.704 22.0851 109.909 21.5585 110.32 21.1214C110.74 20.6843 111.251 20.4657 111.852 20.4657C112.444 20.4657 112.95 20.6843 113.37 21.1214C113.79 21.5585 114 22.0851 114 22.701C114 23.3269 113.79 23.8584 113.37 24.2956C112.95 24.7228 112.444 24.9364 111.852 24.9364Z" fill="#006CE5"/>
</svg>
