<svg width="16" height="16" viewBox="0 0 16 16" fill="none" xmlns="http://www.w3.org/2000/svg">
<g clip-path="url(#clip0_215_448)">
<path d="M10.3246 10.2918C9.94216 10.6728 9.94216 11.297 10.3232 11.6785L14.3259 15.6895C14.7069 16.072 15.3311 16.072 15.7126 15.691C16.095 15.31 16.095 14.6858 15.714 14.3043L11.7113 10.2933C11.3308 9.91177 10.7061 9.91079 10.3246 10.2918Z" fill="white"/>
<path d="M6.61968 1.98336C9.18811 1.98336 11.278 4.07321 11.278 6.64165C11.278 9.21008 9.18811 11.2999 6.61968 11.2999C4.05124 11.2999 1.96139 9.21008 1.96139 6.64165C1.96139 4.07321 4.05124 1.98336 6.61968 1.98336ZM6.61968 0.0219727C2.96365 0.0219727 0 2.98563 0 6.64165C0 10.2977 2.96365 13.2613 6.61968 13.2613C10.2757 13.2613 13.2394 10.2977 13.2394 6.64165C13.2394 2.98563 10.2757 0.0219727 6.61968 0.0219727Z" fill="white"/>
</g>
<defs>
<clipPath id="clip0_215_448">
<rect width="16" height="16" fill="white"/>
</clipPath>
</defs>
</svg>
